<svg xmlns="http://www.w3.org/2000/svg" viewBox="0 0 812 146"><defs><style>.cls-1{fill:#533291;}.cls-2{fill:#3b1c74;}.cls-3,.cls-4{fill:#E8E1F5;}.cls-4{font-size:55px;font-family:RubikMonoOne-Regular, Rubik Mono One;}</style></defs><g id="Layer_2" data-name="Layer 2"><g id="Layer_1-2" data-name="Layer 1"><rect class="cls-1" width="812" height="146" rx="24"/><rect class="cls-2" width="268" height="146" rx="24"/><path class="cls-3" d="M154.45,60.3l8-14.8a1.49,1.49,0,0,0-.57-2.26,1.56,1.56,0,0,0-2.25.68l-8.14,14.92a56.69,56.69,0,0,0-45.43,0L98,43.92a1.57,1.57,0,0,0-2.26-.68,1.49,1.49,0,0,0-.57,2.26l8,14.8A49.53,49.53,0,0,0,83.71,77.65,43.79,43.79,0,0,0,76.48,102H181a43.81,43.81,0,0,0-7.23-24.35A49.81,49.81,0,0,0,154.45,60.3ZM108.06,81.75A4.24,4.24,0,0,1,105,83.06a4,4,0,0,1-3-1.31,4.51,4.51,0,0,1,0-6.21,4.05,4.05,0,0,1,3-1.3,4.39,4.39,0,0,1,3.11,7.51Zm47.63,0a4.06,4.06,0,0,1-3.05,1.31,4.41,4.41,0,0,1,0-8.82,4.05,4.05,0,0,1,3.05,1.3,4.51,4.51,0,0,1,0,6.21Z"/><text class="cls-4" transform="translate(375.2 95.26)">ANDROID</text></g></g></svg>