<svg xmlns="http://www.w3.org/2000/svg" xmlns:xlink="http://www.w3.org/1999/xlink" viewBox="0 0 498.52 380"><defs><style>.cls-1{fill:none;}.cls-2{clip-path:url(#clip-path);}.cls-3{fill:#6f42c1;}.cls-4{fill:#533291;}.cls-5{fill:#fff;}</style><clipPath id="clip-path" transform="translate(0.34)"><rect class="cls-1" width="380" height="380" rx="12"/></clipPath></defs><g id="Layer_2" data-name="Layer 2"><g id="Layer_1-2" data-name="Layer 1"><g class="cls-2"><rect class="cls-3" x="0.34" width="380" height="380" rx="12"/><path class="cls-4" d="M371.53,180.11l38.26-70.59q3.78-7-2.69-10.78c-4.67-2.17-8.26-1.07-10.77,3.23l-38.8,71.15a270.41,270.41,0,0,0-216.67,0L102.06,102c-2.52-4.3-6.12-5.39-10.78-3.23-4.32,2.53-5.21,6.11-2.69,10.78l38.27,70.59q-58.2,29.69-92.7,82.74T-.34,379H498.18q0-63.06-34.49-116.15T371.53,180.11ZM150.29,282.43a20.2,20.2,0,0,1-14.83,6.21,19.27,19.27,0,0,1-14.55-6.21,21.5,21.5,0,0,1,0-29.63,19.36,19.36,0,0,1,14.55-6.19,20.94,20.94,0,0,1,14.83,35.82Zm227.16,0a19.32,19.32,0,0,1-14.55,6.21,21,21,0,0,1,0-42,19.36,19.36,0,0,1,14.55,6.19,21.47,21.47,0,0,1,0,29.63Z" transform="translate(0.34)"/><path class="cls-5" d="M336.71,199.73l34.68-64q3.42-6.34-2.43-9.77c-4.24-2-7.5-1-9.77,2.93L324,193.4a245,245,0,0,0-196.38,0L92.47,128.91C90.18,125,86.93,124,82.7,126c-3.91,2.3-4.72,5.54-2.44,9.77l34.69,64q-52.75,26.91-84,75A189.44,189.44,0,0,0-.34,380H451.51a189.47,189.47,0,0,0-31.27-105.28Q389,226.62,336.71,199.73ZM136.18,292.47a18.3,18.3,0,0,1-13.43,5.63,17.48,17.48,0,0,1-13.19-5.63,19.48,19.48,0,0,1,0-26.86A17.55,17.55,0,0,1,122.75,260a19,19,0,0,1,13.43,32.47Zm205.9,0a17.53,17.53,0,0,1-13.19,5.63,19.05,19.05,0,0,1,0-38.1,17.57,17.57,0,0,1,13.19,5.61,19.48,19.48,0,0,1,0,26.86Z" transform="translate(0.34)"/></g></g></g></svg>