<svg xmlns="http://www.w3.org/2000/svg" viewBox="0 0 716 146"><defs><style>.cls-1{fill:#533291;}.cls-2{fill:#3b1c74;}.cls-3{font-size:55px;font-family:RubikMonoOne-Regular, Rubik Mono One;}.cls-3,.cls-4{fill:#c5b3e6;}</style></defs><g id="Layer_2" data-name="Layer 2"><g id="Layer_1-2" data-name="Layer 1"><rect class="cls-1" width="716" height="146" rx="24"/><rect class="cls-2" width="268" height="146" rx="24"/><text class="cls-3" transform="translate(339.2 95.26)">GOLANG</text><path class="cls-4" d="M66.21,67.81c-.28,0-.35-.14-.21-.35l1.47-1.89a1,1,0,0,1,.77-.35h25c.28,0,.35.21.21.42l-1.19,1.82a1.07,1.07,0,0,1-.7.42ZM55.65,74.24c-.28,0-.35-.14-.21-.35L56.91,72a1,1,0,0,1,.77-.35H89.57a.32.32,0,0,1,.35.42l-.56,1.68a.61.61,0,0,1-.63.42Zm16.92,6.43c-.28,0-.35-.21-.21-.41l1-1.75a.93.93,0,0,1,.7-.42H88c.28,0,.42.21.42.49l-.14,1.68a.52.52,0,0,1-.49.48Zm72.59-14.12c-4.4,1.12-7.41,2-11.75,3.08-1,.28-1.12.35-2-.7a9.37,9.37,0,0,0-3.29-2.66c-4.41-2.17-8.67-1.54-12.66,1a14.87,14.87,0,0,0-7.13,13.28,11,11,0,0,0,9.44,11A12.93,12.93,0,0,0,129.64,87c.63-.77,1.19-1.61,1.89-2.59H118c-1.47,0-1.82-.91-1.33-2.1.91-2.16,2.59-5.8,3.57-7.62A1.89,1.89,0,0,1,122,73.54h25.46c-.14,1.89-.14,3.78-.42,5.67a29.87,29.87,0,0,1-5.73,13.7,29.13,29.13,0,0,1-19.93,11.89,24.81,24.81,0,0,1-18.82-4.61,22,22,0,0,1-8.88-15.53c-.91-7.62,1.33-14.47,6-20.49a31,31,0,0,1,19.58-12.1c6.57-1.19,12.86-.42,18.53,3.43a21.9,21.9,0,0,1,8.11,9.86C146.28,66,146,66.34,145.16,66.55Z"/><path class="cls-4" d="M168.31,105.22a26.25,26.25,0,0,1-17.06-6.15,22,22,0,0,1-7.56-13.5c-1.26-7.9.91-14.9,5.67-21.12,5.1-6.71,11.26-10.21,19.58-11.68,7.13-1.26,13.84-.56,19.93,3.57a21.77,21.77,0,0,1,9.86,15.59,27,27,0,0,1-8,23.71,32,32,0,0,1-16.79,9c-1.88.35-3.77.42-5.59.63ZM185,77a20.14,20.14,0,0,0-.21-2.31,11.52,11.52,0,0,0-14.26-9.3C164,66.83,159.78,71,158.24,77.53a11.51,11.51,0,0,0,6.43,13.21,12.84,12.84,0,0,0,11.4-.41C181.6,87.46,184.6,83,185,77Z"/></g></g></svg>