<svg xmlns="http://www.w3.org/2000/svg" xmlns:xlink="http://www.w3.org/1999/xlink" viewBox="0 0 488 380"><defs><style>.cls-1{fill:none;}.cls-2{clip-path:url(#clip-path);}.cls-3{fill:#6f42c1;}.cls-4{fill:#533291;}.cls-5{fill:#fff;}</style><clipPath id="clip-path" transform="translate(39.82)"><rect class="cls-1" width="380" height="380" rx="12"/></clipPath></defs><g id="Layer_2" data-name="Layer 2"><g id="Layer_1-2" data-name="Layer 1"><g class="cls-2"><rect class="cls-3" x="39.82" width="380" height="380" rx="12"/><path class="cls-4" d="M-3,224.54c-.95,0-1.19-.48-.71-1.19l5-6.41a3.37,3.37,0,0,1,2.61-1.19H88.72c1,0,1.19.71.72,1.42l-4,6.18A3.66,3.66,0,0,1,83,224.78ZM-38.87,246.4c-1,0-1.19-.48-.71-1.19l5-6.42A3.39,3.39,0,0,1-32,237.61H76.37A1.09,1.09,0,0,1,77.56,239l-1.9,5.7a2.09,2.09,0,0,1-2.14,1.43Zm57.5,21.86c-.95,0-1.19-.72-.71-1.43l3.32-5.94a3.17,3.17,0,0,1,2.38-1.42H71.14c1,0,1.43.71,1.43,1.66l-.48,5.7a1.78,1.78,0,0,1-1.66,1.66Zm246.63-48c-15,3.8-25.19,6.65-39.92,10.46-3.56.95-3.8,1.18-6.89-2.38-3.56-4-6.18-6.65-11.16-9-15-7.36-29.47-5.23-43,3.56C148.12,233.33,139.81,248.77,140,268c.24,19,13.31,34.69,32.08,37.3,16.16,2.14,29.7-3.56,40.39-15.68,2.14-2.61,4-5.46,6.42-8.79H173.07c-5,0-6.18-3.09-4.51-7.13,3.09-7.36,8.79-19.72,12.11-25.9a6.44,6.44,0,0,1,5.94-3.8H273.1c-.48,6.42-.48,12.83-1.43,19.25a101.26,101.26,0,0,1-19.48,46.57c-17.11,22.57-39.44,36.59-67.71,40.39-23.29,3.09-44.91-1.43-63.92-15.68C103,321.24,93,303.66,90.39,281.8c-3.09-25.9,4.51-49.18,20.19-69.62,16.87-22.09,39.21-36.11,66.53-41.1,22.33-4,43.72-1.43,63,11.64,12.6,8.32,21.63,19.72,27.57,33.5C269.06,218.36,268.11,219.55,265.26,220.26Z" transform="translate(39.82)"/><path class="cls-4" d="M343.9,351.65c-21.62-.47-41.34-6.65-58-20.9a74.53,74.53,0,0,1-25.66-45.86c-4.28-26.85,3.09-50.61,19.25-71.76,17.34-22.81,38.25-34.69,66.52-39.68,24.24-4.27,47-1.9,67.72,12.12,18.77,12.83,30.41,30.18,33.5,53,4,32.07-5.23,58.21-27.32,80.54C404.25,335,385,345,362.91,349.52c-6.41,1.18-12.83,1.42-19,2.13Zm56.55-96a65.77,65.77,0,0,0-.71-7.84c-4.28-23.52-25.9-36.82-48.47-31.6-22.1,5-36.35,19-41.58,41.34-4.28,18.54,4.75,37.31,21.86,44.91,13.07,5.7,26.14,5,38.73-1.42,18.77-9.75,29-24.95,30.17-45.39Z" transform="translate(39.82)"/><path class="cls-5" d="M-2,237c-.87,0-1.09-.44-.65-1.09L1.9,230A3.12,3.12,0,0,1,4.3,229H82.13c.87,0,1.09.65.65,1.31l-3.7,5.67a3.34,3.34,0,0,1-2.18,1.3Zm-32.92,20c-.87,0-1.09-.43-.65-1.09L-31,250.1a3.09,3.09,0,0,1,2.4-1.09H70.79a1,1,0,0,1,1.09,1.31l-1.74,5.23a1.92,1.92,0,0,1-2,1.31Zm52.76,20.06c-.87,0-1.09-.65-.65-1.31l3.05-5.45a2.91,2.91,0,0,1,2.18-1.31H66c.88,0,1.31.66,1.31,1.53l-.43,5.23a1.65,1.65,0,0,1-1.53,1.53Zm226.3-44c-13.73,3.49-23.11,6.11-36.62,9.59-3.27.88-3.49,1.09-6.33-2.18-3.27-3.7-5.67-6.1-10.24-8.28-13.74-6.76-27-4.8-39.46,3.27-14.83,9.59-22.46,23.76-22.24,41.42.22,17.44,12.21,31.83,29.43,34.23,14.83,2,27.25-3.27,37.06-14.39,2-2.4,3.71-5,5.89-8.06H159.52c-4.58,0-5.67-2.84-4.14-6.54,2.83-6.76,8.07-18.1,11.12-23.77a5.88,5.88,0,0,1,5.45-3.49h79.36c-.44,5.89-.44,11.78-1.31,17.66a93,93,0,0,1-17.88,42.73C216.42,336,195.93,348.86,170,352.35c-21.37,2.83-41.21-1.31-58.65-14.39-16.13-12.21-25.29-28.35-27.69-48.4-2.83-23.77,4.15-45.13,18.53-63.88,15.48-20.28,36-33.14,61-37.72,20.49-3.7,40.11-1.3,57.77,10.69a68.28,68.28,0,0,1,25.29,30.74C247.6,231.35,246.73,232.44,244.11,233.09Z" transform="translate(39.82)"/><path class="cls-5" d="M316.27,353.65c-19.83-.43-37.93-6.1-53.19-19.18a68.42,68.42,0,0,1-23.55-42.08c-3.92-24.63,2.84-46.44,17.66-65.84,15.92-20.93,35.1-31.83,61.05-36.41,22.23-3.92,43.16-1.74,62.13,11.12C397.59,213,408.28,229,411.11,249.88c3.71,29.43-4.8,53.41-25.07,73.91-14.39,14.6-32.05,23.76-52.32,27.9-5.89,1.09-11.78,1.31-17.45,2Zm51.89-88.07a64.65,64.65,0,0,0-.65-7.2c-3.93-21.58-23.77-33.79-44.48-29-20.27,4.57-33.35,17.44-38.15,37.93-3.92,17,4.36,34.23,20.06,41.2,12,5.24,24,4.58,35.53-1.3,17.23-8.94,26.6-22.89,27.69-41.64Z" transform="translate(39.82)"/></g></g></g></svg>