<svg xmlns="http://www.w3.org/2000/svg" xmlns:xlink="http://www.w3.org/1999/xlink" viewBox="0 0 404.01 394.45"><defs><style>.cls-1{fill:none;}.cls-2{clip-path:url(#clip-path);}.cls-3{fill:#6f42c1;}.cls-4{fill:#533291;}.cls-5,.cls-6{fill:#fff;}.cls-6{font-size:55px;font-family:Anton-Regular, Anton;}</style><clipPath id="clip-path"><rect class="cls-1" width="380" height="380" rx="12"/></clipPath></defs><g id="Layer_2" data-name="Layer 2"><g id="Layer_1-2" data-name="Layer 1"><g class="cls-2"><rect class="cls-3" width="380" height="380" rx="12"/><path class="cls-4" d="M194.67,389.68a23.43,23.43,0,0,1-18.49-8.95l-69.59-86.49A23.32,23.32,0,0,1,102,274l24.86-108a23.52,23.52,0,0,1,12.92-16.11L240.4,101.76a23.65,23.65,0,0,1,20.68,0L361.7,149.68a23.52,23.52,0,0,1,12.92,16.11l24.86,108A24,24,0,0,1,394.9,294l-69.59,86.5a24.08,24.08,0,0,1-18.49,8.94l-112.15.2Z"/><path class="cls-4" d="M250.54,104.35a19.37,19.37,0,0,1,8.16,1.79l100.61,47.92A19.28,19.28,0,0,1,369.65,167L394.5,275a18.6,18.6,0,0,1-3.77,16.31l-69.6,86.49a18.94,18.94,0,0,1-14.91,7.16H194.67a18.94,18.94,0,0,1-14.91-7.16l-69.6-86.49A19.89,19.89,0,0,1,106.39,275l24.85-108a19,19,0,0,1,10.34-12.92L242.2,105.94a23.77,23.77,0,0,1,8.35-1.59Zm0-9.35a30,30,0,0,0-12.32,2.78L137.6,145.9a28.18,28.18,0,0,0-15.51,19.29l-24.85,108a28.19,28.19,0,0,0,5.57,24.26l69.59,86.5a28.08,28.08,0,0,0,22.07,10.53H306a28.08,28.08,0,0,0,22.07-10.53l69.6-86.5a28.07,28.07,0,0,0,5.56-24.26l-24.85-108a28.18,28.18,0,0,0-15.51-19.29L262.67,97.78A28.46,28.46,0,0,0,250.54,95Z"/><path class="cls-5" d="M351.36,266.4h-.2c-.2,0-.4,0-.4-.2-.4,0-.79-.2-1.19-.2a27,27,0,0,0-3.78-.39,7.43,7.43,0,0,1-2-.2h-.2a53.13,53.13,0,0,1-10.74-1.79,3.87,3.87,0,0,1-2.18-2.19c0-.2-.2-.2-.2-.4l-2.59-.79a78.72,78.72,0,0,0-1.39-28,82.07,82.07,0,0,0-11.13-26l2-1.79V204a4.48,4.48,0,0,1,1-3,58.18,58.18,0,0,1,8.95-6.16c.59-.4,1.19-.6,1.79-1a30.55,30.55,0,0,0,3.38-2c.2-.2.59-.4,1-.8.2-.2.4-.2.4-.4,2.78-2.38,3.38-6.36,1.39-8.95a5.64,5.64,0,0,0-4.57-2.18,7.36,7.36,0,0,0-4.38,1.59l-.39.4c-.4.19-.6.59-1,.79a34.3,34.3,0,0,0-2.58,2.78,9.24,9.24,0,0,1-1.4,1.4,49.73,49.73,0,0,1-7.95,7.15,3.2,3.2,0,0,1-1.79.6A2.5,2.5,0,0,1,310,194h-.4l-2.39,1.59a94.4,94.4,0,0,0-8.15-7.55,79.41,79.41,0,0,0-41.56-16.51l-.19-2.58-.4-.4a4.15,4.15,0,0,1-1.59-2.58,70.53,70.53,0,0,1,.59-10.74v-.2a7,7,0,0,1,.4-2c.2-1.19.4-2.38.6-3.78v-1.79a6.07,6.07,0,0,0-10.54-4.57,6.3,6.3,0,0,0-1.79,4.57v1.59a11.48,11.48,0,0,0,.6,3.78c.19.6.19,1.2.39,2v.2c.4,4,1,7.56.6,10.74a4.12,4.12,0,0,1-1.59,2.58l-.4.4-.2,2.58a98.87,98.87,0,0,0-10.73,1.6,76.59,76.59,0,0,0-39.37,22.27l-2-1.4h-.4c-.4,0-.8.2-1.19.2a3.23,3.23,0,0,1-1.79-.59,53,53,0,0,1-8-7.36,8.29,8.29,0,0,0-1.39-1.39,32.78,32.78,0,0,0-2.58-2.79c-.2-.2-.6-.39-1-.79-.2-.2-.39-.2-.39-.4a7,7,0,0,0-4.38-1.59,5.62,5.62,0,0,0-4.57,2.19c-2,2.58-1.4,6.56,1.39,8.94.2,0,.2.2.4.2.39.2.59.6,1,.8a31.34,31.34,0,0,0,3.38,2,8,8,0,0,1,1.79,1,58.18,58.18,0,0,1,8.95,6.17,3.65,3.65,0,0,1,1,3v.4l2,1.79a6.7,6.7,0,0,0-1,1.59A77.41,77.41,0,0,0,174,259.64l-2.58.79c0,.2-.2.2-.2.4A4.65,4.65,0,0,1,169,263a50.58,50.58,0,0,1-10.74,1.79h-.2a6.67,6.67,0,0,0-2,.2,26.91,26.91,0,0,0-3.78.4c-.4,0-.8.2-1.2.2a.75.75,0,0,0-.59.19,6.52,6.52,0,0,0-5.17,7.36c.6,2.78,3.18,4.58,6.36,4.58a4.32,4.32,0,0,0,1.59-.2c.2,0,.4,0,.4-.2.4,0,.79-.2,1.19-.2a19.74,19.74,0,0,0,3.58-1.39c.6-.2,1.19-.6,1.79-.8h.2a49.14,49.14,0,0,1,10.34-3h.4a4.38,4.38,0,0,1,2.58,1c.2,0,.2.2.4.2l2.78-.4A78.72,78.72,0,0,0,203,310.15a82.54,82.54,0,0,0,8.55,5.76l-1.19,2.59c0,.2.2.2.2.39a4.12,4.12,0,0,1,.4,3.19,57.17,57.17,0,0,1-5.17,9.34v.2c-.4.6-.8,1-1.2,1.59-.79,1-1.39,2-2.18,3.18a4.37,4.37,0,0,0-.6,1,.66.66,0,0,1-.2.39c-1.59,3.38-.4,7.16,2.59,8.55a5.25,5.25,0,0,0,2.38.6,7.16,7.16,0,0,0,6-3.78.66.66,0,0,1,.2-.39,4,4,0,0,1,.59-1,34.77,34.77,0,0,0,1.19-3.58l.6-1.79c1.39-4,2.39-7.16,4.18-9.94a5.13,5.13,0,0,1,2.58-1.79c.2,0,.2,0,.4-.2l1.39-2.58a77.73,77.73,0,0,0,27.84,5.17,72.27,72.27,0,0,0,17.3-2,88.45,88.45,0,0,0,10.34-3l1.19,2.18c.2,0,.2,0,.4.2a3.69,3.69,0,0,1,2.58,1.79,68.57,68.57,0,0,1,4.18,9.94v.2l.6,1.79a23.84,23.84,0,0,0,1.19,3.58c.2.4.4.6.59,1a.7.7,0,0,0,.2.39,6.76,6.76,0,0,0,6,3.78,5.32,5.32,0,0,0,2.39-.6,5.9,5.9,0,0,0,3-3.57,7.17,7.17,0,0,0-.4-5c0-.19-.2-.19-.2-.39a4.79,4.79,0,0,0-.59-1,18.46,18.46,0,0,0-2.19-3.18c-.4-.6-.8-1-1.19-1.59v-.2c-2.19-3.38-4.18-6.36-5.17-9.34a5.63,5.63,0,0,1,.19-3.19c0-.19.2-.19.2-.39l-1-2.39a78.85,78.85,0,0,0,34.6-43.55l2.38.4c.2,0,.2-.2.4-.2a5.13,5.13,0,0,1,2.59-1h.39a49.14,49.14,0,0,1,10.34,3h.2c.6.2,1.19.6,1.79.8a19.74,19.74,0,0,0,3.58,1.39c.4,0,.79.2,1.19.2a.73.73,0,0,1,.6.2,4.35,4.35,0,0,0,1.59.2,6.69,6.69,0,0,0,6.36-4.58c0-2.38-2.18-5.57-5.76-6.56Zm-92.07-9.74-8.75,4.17-8.74-4.17-2.19-9.35,6-7.55h9.75l6,7.55-2,9.35ZM311.19,236a62.76,62.76,0,0,1,1.39,20.08l-30.42-8.75a5.4,5.4,0,0,1-3.78-6.36,4.74,4.74,0,0,1,1.2-2.19l24.06-21.67A63.71,63.71,0,0,1,311.19,236Zm-17.1-30.82-26,18.49a5.31,5.31,0,0,1-7-1.19,4.52,4.52,0,0,1-1-2.19l-1.79-32.41a60.36,60.36,0,0,1,35.79,17.3Zm-57.66-16.31,6.36-1.19L241,219.47a5.44,5.44,0,0,1-5.37,5.17,4.77,4.77,0,0,1-2.38-.59L206.8,205.16a60.7,60.7,0,0,1,29.63-16.31Zm-39.17,28.24,23.66,21.07a5.3,5.3,0,0,1,.59,7.36,3.92,3.92,0,0,1-2.38,1.59l-30.82,8.95a63.94,63.94,0,0,1,8.95-39ZM191.89,271l31.61-5.37a5.36,5.36,0,0,1,5.57,4.18,5.64,5.64,0,0,1-.2,3.18l-12.13,29.23A62.67,62.67,0,0,1,191.89,271Zm72.57,39.57a64.5,64.5,0,0,1-13.92,1.59A67.33,67.33,0,0,1,230.46,309l15.71-28.43a5.21,5.21,0,0,1,6.36-1.39,8.43,8.43,0,0,1,2.39,2.18L270.23,309c-1.79.6-3.78,1-5.77,1.59Zm38.78-27.64a63.09,63.09,0,0,1-19.09,19.29l-12.53-30a5.36,5.36,0,0,1,2.79-6.16,6.27,6.27,0,0,1,2.78-.6L309,270.77a39.9,39.9,0,0,1-5.76,12.13Z"/></g><text class="cls-6" transform="translate(22.18 70.05)">Kubernetes</text></g></g></svg>