<svg xmlns="http://www.w3.org/2000/svg" viewBox="0 0 869 146"><defs><style>.cls-1{fill:#533291;}.cls-2{fill:#3b1c74;}.cls-3{font-size:55px;font-family:RubikMonoOne-Regular, Rubik Mono One;}.cls-3,.cls-4{fill:#E8E1F5;}</style></defs><g id="Layer_2" data-name="Layer 2"><g id="Layer_1-2" data-name="Layer 1"><rect class="cls-1" width="869" height="146" rx="24"/><rect class="cls-2" width="268" height="146" rx="24"/><text class="cls-3" transform="translate(339.2 95.26)">Kubernetes</text><path class="cls-1" d="M107.38,119.89a7.56,7.56,0,0,1-6-2.89L78.89,89a7.53,7.53,0,0,1-1.48-6.54l8-34.93a7.58,7.58,0,0,1,4.17-5.21l32.55-15.57a7.63,7.63,0,0,1,6.69,0l32.54,15.5a7.62,7.62,0,0,1,4.18,5.21l8,34.93A7.8,7.8,0,0,1,172.14,89l-22.51,28a7.78,7.78,0,0,1-6,2.89l-36.27.07Z"/><path class="cls-4" d="M158.06,80H158c-.06,0-.13,0-.13-.07s-.25-.06-.38-.06a10.26,10.26,0,0,0-1.23-.13,2.32,2.32,0,0,1-.64-.06h-.07a17.72,17.72,0,0,1-3.47-.58,1.3,1.3,0,0,1-.71-.71c0-.06-.06-.06-.06-.13l-.84-.25A25.56,25.56,0,0,0,150,69a26.36,26.36,0,0,0-3.6-8.41l.65-.58v-.14a1.41,1.41,0,0,1,.32-1,18.68,18.68,0,0,1,2.9-2c.19-.13.38-.19.58-.32A10.1,10.1,0,0,0,152,55.9c.06-.06.19-.13.32-.25s.13-.07.13-.13a2.16,2.16,0,0,0,.45-2.9,1.81,1.81,0,0,0-1.48-.7,2.34,2.34,0,0,0-1.41.51l-.13.13c-.13.06-.19.19-.32.26a10.06,10.06,0,0,0-.84.89,2.79,2.79,0,0,1-.45.46,16.13,16.13,0,0,1-2.57,2.31,1,1,0,0,1-.58.19.75.75,0,0,1-.39-.07h-.13l-.77.52a30.62,30.62,0,0,0-2.64-2.45,25.64,25.64,0,0,0-13.44-5.33l-.06-.84-.13-.13a1.34,1.34,0,0,1-.52-.83,23.81,23.81,0,0,1,.19-3.48V44a2.88,2.88,0,0,1,.13-.65c.07-.38.13-.77.2-1.22v-.58a2,2,0,0,0-3.41-1.48,2.05,2.05,0,0,0-.58,1.48v.51a4,4,0,0,0,.19,1.23,6.51,6.51,0,0,1,.13.64V44a16.39,16.39,0,0,1,.19,3.47,1.35,1.35,0,0,1-.51.84l-.13.13-.06.83a30.88,30.88,0,0,0-3.47.52A24.7,24.7,0,0,0,107.12,57l-.64-.45h-.13c-.13,0-.26.06-.39.06a1,1,0,0,1-.58-.19A17.17,17.17,0,0,1,102.79,54a2.68,2.68,0,0,0-.44-.45,11.92,11.92,0,0,0-.84-.9c-.06-.07-.19-.13-.32-.26s-.13-.06-.13-.13a2.28,2.28,0,0,0-1.42-.51,1.81,1.81,0,0,0-1.47.71,2.13,2.13,0,0,0,.45,2.89c.06,0,.06.06.13.06s.19.2.32.26a9.22,9.22,0,0,0,1.09.65,2.52,2.52,0,0,1,.58.32,19.39,19.39,0,0,1,2.9,2,1.19,1.19,0,0,1,.32,1v.13l.65.58a2.12,2.12,0,0,0-.33.51,25.07,25.07,0,0,0-3.59,17l-.83.26c0,.06-.07.06-.07.13a1.51,1.51,0,0,1-.71.7,16.44,16.44,0,0,1-3.48.58h-.06a2.35,2.35,0,0,0-.65.06,9.89,9.89,0,0,0-1.22.13c-.13,0-.26.07-.39.07a.22.22,0,0,0-.19.06,2.11,2.11,0,0,0-1.67,2.38,2,2,0,0,0,2,1.48,1.51,1.51,0,0,0,.52-.06c.06,0,.13,0,.13-.07s.25-.06.38-.06A7.74,7.74,0,0,0,95.66,83c.19-.07.38-.2.58-.26h.06a15.67,15.67,0,0,1,3.35-1h.13a1.4,1.4,0,0,1,.83.32c.07,0,.07.07.13.07l.9-.13a24.69,24.69,0,0,0,11.2,14l-.39.84c0,.06.07.06.07.13a1.37,1.37,0,0,1,.13,1,19.37,19.37,0,0,1-1.68,3v.06c-.13.2-.25.33-.38.52s-.45.64-.71,1a1.13,1.13,0,0,0-.19.32.19.19,0,0,1-.07.12,2,2,0,0,0,.84,2.77,1.72,1.72,0,0,0,.77.19,2.31,2.31,0,0,0,1.94-1.22.23.23,0,0,1,.06-.12,1.38,1.38,0,0,1,.2-.33c.14-.38.27-.76.38-1.16l.19-.57a14.77,14.77,0,0,1,1.36-3.22,1.62,1.62,0,0,1,.83-.58c.07,0,.07,0,.13-.06l.45-.84a25,25,0,0,0,9,1.67,23.42,23.42,0,0,0,5.6-.64,29.67,29.67,0,0,0,3.34-1l.39.7c.06,0,.06,0,.13.07a1.19,1.19,0,0,1,.83.58,21,21,0,0,1,1.35,3.21v.07l.2.57a7.5,7.5,0,0,0,.38,1.16c.07.13.13.2.19.33a.21.21,0,0,0,.07.12,2.16,2.16,0,0,0,1.94,1.22,1.72,1.72,0,0,0,.77-.19,1.91,1.91,0,0,0,1-1.15,2.27,2.27,0,0,0-.13-1.62c0-.06-.06-.06-.06-.13a2.07,2.07,0,0,0-.19-.32,6.08,6.08,0,0,0-.71-1c-.13-.19-.26-.32-.39-.51V101a14.71,14.71,0,0,1-1.67-3,1.81,1.81,0,0,1,.06-1c0-.06.07-.06.07-.13l-.33-.77A25.53,25.53,0,0,0,149.78,82l.77.13c.06,0,.06-.06.12-.06a1.64,1.64,0,0,1,.84-.32h.13a15.42,15.42,0,0,1,3.34,1h.07c.19.06.38.19.58.25a6,6,0,0,0,1.15.45c.13,0,.26.07.39.07a.22.22,0,0,1,.19.06,1.31,1.31,0,0,0,.52.07,2.16,2.16,0,0,0,2.05-1.48A2.46,2.46,0,0,0,158.07,80Zm-29.78-3.15-2.83,1.35-2.83-1.35-.71-3,1.94-2.44H127L129,73.84l-.65,3Zm16.78-6.68a20.23,20.23,0,0,1,.45,6.49l-9.84-2.83a1.75,1.75,0,0,1-1.22-2.06,1.57,1.57,0,0,1,.39-.7l7.78-7A20.37,20.37,0,0,1,145.06,70.19Zm-5.53-10-8.41,6a1.71,1.71,0,0,1-2.26-.39,1.41,1.41,0,0,1-.32-.7L128,54.62A19.52,19.52,0,0,1,139.53,60.22Zm-18.65-5.28,2.06-.38-.58,10.28a1.75,1.75,0,0,1-1.73,1.67,1.47,1.47,0,0,1-.77-.19l-8.56-6.11a19.58,19.58,0,0,1,9.58-5.27Zm-12.66,9.14,7.65,6.81a1.72,1.72,0,0,1,.19,2.38,1.29,1.29,0,0,1-.77.52l-10,2.89a20.65,20.65,0,0,1,2.9-12.61Zm-1.74,17.43,10.22-1.74a1.73,1.73,0,0,1,1.8,1.35,1.81,1.81,0,0,1-.06,1l-3.92,9.45A20.26,20.26,0,0,1,106.48,81.51ZM130,94.3a20.71,20.71,0,0,1-4.5.52,22,22,0,0,1-6.5-1L124,84.6a1.69,1.69,0,0,1,2.06-.45,2.6,2.6,0,0,1,.77.71l5,8.94c-.58.19-1.23.32-1.87.51Zm12.54-8.94a20.3,20.3,0,0,1-6.17,6.24l-4-9.7a1.73,1.73,0,0,1,.9-2,2.15,2.15,0,0,1,.9-.2l10.28,1.72a12.78,12.78,0,0,1-1.86,3.93Z"/></g></g></svg>