<svg xmlns="http://www.w3.org/2000/svg" xmlns:xlink="http://www.w3.org/1999/xlink" viewBox="0 0 436.18 433.54"><defs><style>.cls-1{fill:none;}.cls-2{clip-path:url(#clip-path);}.cls-3{fill:#6f42c1;}.cls-4{fill:#533291;}.cls-5{fill:#fff;}</style><clipPath id="clip-path"><rect class="cls-1" width="380" height="380" rx="12"/></clipPath></defs><g id="Layer_2" data-name="Layer 2"><g id="Layer_1-2" data-name="Layer 1"><g class="cls-2"><rect class="cls-3" width="380" height="380" rx="12"/><path class="cls-4" d="M433.62,241.68,417.9,232c-.13-1.53-.28-3.06-.45-4.58L431,214.76a5.41,5.41,0,0,0-1.79-9l-17.27-6.46c-.44-1.49-.89-3-1.36-4.46l10.78-15a5.42,5.42,0,0,0-3.52-8.51l-18.22-3c-.7-1.38-1.44-2.74-2.18-4.09l7.65-16.8a5.4,5.4,0,0,0-5.11-7.65l-18.49.64c-.95-1.2-1.93-2.38-2.92-3.54l4.25-18a5.41,5.41,0,0,0-6.51-6.51l-18,4.24q-1.75-1.48-3.55-2.92l.65-18.48a5.42,5.42,0,0,0-7.66-5.12L330.92,97.8q-2-1.12-4.09-2.19l-3-18.22a5.42,5.42,0,0,0-8.51-3.52l-15,10.77c-1.47-.47-3-.92-4.45-1.35L289.47,66a5.41,5.41,0,0,0-9-1.8l-12.6,13.52c-1.52-.17-3-.32-4.58-.45l-9.73-15.73a5.41,5.41,0,0,0-9.2,0l-9.74,15.73c-1.53.13-3.06.28-4.58.45L217.4,64.22a5.41,5.41,0,0,0-7.64-.28A5.31,5.31,0,0,0,208.38,66l-6.46,17.27c-1.5.43-3,.89-4.46,1.35l-15-10.77A5.41,5.41,0,0,0,174,77.39l-3,18.22q-2.06,1.06-4.09,2.19l-16.79-7.66a5.41,5.41,0,0,0-7.65,5.12l.64,18.48q-1.8,1.44-3.55,2.92l-18-4.24a5.42,5.42,0,0,0-6.52,6.51l4.25,18q-1.48,1.74-2.92,3.54l-18.48-.64a5.41,5.41,0,0,0-5.12,7.65l7.66,16.8c-.74,1.35-1.48,2.71-2.19,4.09l-18.22,3a5.42,5.42,0,0,0-4.47,6.22,5.51,5.51,0,0,0,1,2.29l10.78,15c-.47,1.47-.93,3-1.36,4.45l-17.27,6.46a5.43,5.43,0,0,0-3.17,7,5.6,5.6,0,0,0,1.37,2l13.52,12.6q-.25,2.29-.45,4.59l-15.72,9.73a5.41,5.41,0,0,0,0,9.2l15.72,9.73c.13,1.53.28,3.06.45,4.58L66.86,277.8a5.41,5.41,0,0,0-.27,7.64,5.28,5.28,0,0,0,2.07,1.38l17.27,6.46c.43,1.5.89,3,1.36,4.46l-10.78,15a5.4,5.4,0,0,0,3.53,8.5l18.21,3q1.06,2.07,2.19,4.09l-7.66,16.8a5.41,5.41,0,0,0,5.12,7.65l18.47-.65c1,1.21,1.94,2.38,2.93,3.55l-4.25,18a5.42,5.42,0,0,0,6.52,6.5l18-4.24c1.17,1,2.36,2,3.55,2.91l-.64,18.49a5.4,5.4,0,0,0,5.2,5.6,5.46,5.46,0,0,0,2.45-.49l16.79-7.65q2,1.13,4.09,2.19l3,18.21a5.42,5.42,0,0,0,8.51,3.53l15-10.78c1.47.47,3,.92,4.45,1.35l6.46,17.27a5.42,5.42,0,0,0,9,1.8L230,414.8c1.52.18,3.05.32,4.58.46L244.32,431a5.41,5.41,0,0,0,9.2,0l9.74-15.72c1.53-.14,3.06-.28,4.58-.46l12.6,13.52a5.41,5.41,0,0,0,9-1.8l6.46-17.27c1.5-.43,3-.88,4.46-1.35l15,10.78a5.41,5.41,0,0,0,7.56-1.24,5.31,5.31,0,0,0,.94-2.29l3-18.21c1.38-.71,2.74-1.45,4.09-2.19l16.8,7.65a5.4,5.4,0,0,0,7.65-5.11l-.64-18.48q1.8-1.44,3.54-2.92l18,4.24a5.42,5.42,0,0,0,6.51-6.5l-4.24-18c1-1.17,2-2.34,2.91-3.55l18.48.65a5.41,5.41,0,0,0,5.12-7.65l-7.66-16.8q1.13-2,2.19-4.09l18.22-3a5.35,5.35,0,0,0,4.12-3.27,5.41,5.41,0,0,0-.6-5.23l-10.78-15c.47-1.48.92-3,1.36-4.46l17.27-6.46a5.4,5.4,0,0,0,1.79-9l-13.51-12.61c.16-1.52.31-3.05.44-4.58l15.73-9.73a5.41,5.41,0,0,0,0-9.2ZM328.38,372.12a11.14,11.14,0,1,1,13.21-8.56,11.15,11.15,0,0,1-13.21,8.56ZM323,336a10.15,10.15,0,0,0-12,7.79h0l-5.58,26.05a137.26,137.26,0,0,1-114.19-.54l-5.58-26.06a10.14,10.14,0,0,0-12-7.79l-23,4.94a137,137,0,0,1-11.89-14H250.63c1.26,0,2.11-.23,2.11-1.38V285.39c0-1.15-.85-1.38-2.12-1.38H217.9V258.92h35.4c3.23,0,17.27.92,21.76,18.88,1.41,5.52,4.5,23.48,6.61,29.23,2.1,6.45,10.67,19.33,19.8,19.33h55.76a11.23,11.23,0,0,0,2-.2A138.19,138.19,0,0,1,346.57,341L323,336ZM168.27,371.57a11.14,11.14,0,1,1,8.53-13.22,11.11,11.11,0,0,1-8.53,13.22ZM125.81,199.43a11.12,11.12,0,1,1-14.67-5.67,11.14,11.14,0,0,1,14.67,5.67Zm-13,30.93,24-10.65a10.15,10.15,0,0,0,5.15-13.39L137,195.16h19.4v87.47H117.2a137.63,137.63,0,0,1-4.43-52.27Zm105.13-8.5V196.08h46.21c2.39,0,16.86,2.76,16.86,13.58,0,9-11.1,12.2-20.22,12.2Zm168,23.21q0,5.13-.38,10.17H371.42c-1.4,0-2,.92-2,2.3V264c0,15.19-8.56,18.49-16.07,19.33-7.14.81-15.07-3-16-7.36-4.22-23.71-11.24-28.78-22.34-37.53,13.77-8.74,28.09-21.64,28.09-38.9,0-18.64-12.77-30.38-21.48-36.14-12.22-8-25.75-9.67-29.4-9.67H146.91a136.76,136.76,0,0,1,76.61-43.23l17.12,18a10.13,10.13,0,0,0,14.32.35h0l19.16-18.33a137,137,0,0,1,93.74,66.76l-13.12,29.63a10.18,10.18,0,0,0,5.16,13.4l25.26,11.22q.66,6.72.67,13.6ZM240.65,95.2a11.13,11.13,0,1,1-.37,15.75,11.11,11.11,0,0,1,.37-15.75ZM370.84,200a11.1,11.1,0,0,1,14.65-5.67h0a11.13,11.13,0,0,1-9,20.37h0a11.15,11.15,0,0,1-5.65-14.7Z"/><path class="cls-5" d="M413.76,251.92l-14.88-9.21c-.13-1.45-.27-2.89-.43-4.33l12.79-11.94a5.12,5.12,0,0,0-1.69-8.54l-16.35-6.12c-.42-1.41-.84-2.82-1.29-4.22l10.2-14.16a5.13,5.13,0,0,0-3.33-8.06l-17.24-2.8c-.67-1.31-1.37-2.6-2.07-3.87l7.24-15.9a5.12,5.12,0,0,0-4.84-7.25l-17.49.61q-1.36-1.69-2.77-3.35l4-17.05a5.13,5.13,0,0,0-6.16-6.17l-17,4q-1.67-1.41-3.36-2.76l.61-17.5a5.12,5.12,0,0,0-7.24-4.84l-15.9,7.25c-1.28-.71-2.57-1.4-3.87-2.08l-2.81-17.24A5.12,5.12,0,0,0,304,92.18a5,5,0,0,0-2.16.89l-14.18,10.2c-1.39-.44-2.8-.87-4.21-1.27L277.3,85.64a5.12,5.12,0,0,0-8.54-1.7l-11.93,12.8c-1.44-.16-2.89-.3-4.34-.43l-9.21-14.88a5.12,5.12,0,0,0-8.71,0l-9.21,14.88c-1.45.13-2.9.27-4.34.43l-11.94-12.8a5.12,5.12,0,0,0-8.54,1.7L194.43,102c-1.42.4-2.82.83-4.22,1.27L176,93.07a5.13,5.13,0,0,0-8,3.34l-2.82,17.24c-1.3.68-2.58,1.37-3.87,2.08l-15.9-7.25a5.12,5.12,0,0,0-7.24,4.84l.61,17.5c-1.13.9-2.25,1.83-3.36,2.76l-17-4a5.13,5.13,0,0,0-6.17,6.16l4,17.05c-.93,1.1-1.86,2.22-2.76,3.35L96,155.52a5.12,5.12,0,0,0-4.84,7.24l7.25,15.91c-.71,1.27-1.4,2.56-2.08,3.87l-17.24,2.8a5.13,5.13,0,0,0-3.33,8.06l10.2,14.16c-.45,1.4-.88,2.81-1.28,4.22L68.28,217.9a5.12,5.12,0,0,0-3,6.6,4.93,4.93,0,0,0,1.3,1.94l12.79,11.93c-.16,1.44-.3,2.89-.42,4.34l-14.89,9.21a5.13,5.13,0,0,0,0,8.71L79,269.85c.12,1.45.26,2.89.42,4.33l-12.8,11.94a5.12,5.12,0,0,0-.25,7.23,5.17,5.17,0,0,0,2,1.31l16.36,6.11c.4,1.42.83,2.82,1.28,4.22l-10.2,14.17a5.11,5.11,0,0,0,3.33,8L96.29,330c.68,1.3,1.37,2.59,2.08,3.87l-7.25,15.9A5.13,5.13,0,0,0,96,357l17.49-.62q1.36,1.71,2.77,3.36l-4,17.05a5.12,5.12,0,0,0,6.17,6.15l17-4q1.67,1.41,3.36,2.76l-.61,17.5a5.12,5.12,0,0,0,7.24,4.84l15.9-7.25c1.28.71,2.57,1.41,3.87,2.08L168,416.13a5.12,5.12,0,0,0,8,3.34l14.16-10.2c1.4.44,2.81.87,4.22,1.28l6.12,16.35a5.13,5.13,0,0,0,3.8,3.23,5.07,5.07,0,0,0,4.74-1.54L221,415.8c1.44.17,2.88.31,4.33.43l9.22,14.89a5.13,5.13,0,0,0,8.71,0l9.21-14.89c1.45-.12,2.9-.26,4.34-.43l11.93,12.79a5.07,5.07,0,0,0,4.74,1.54,5.13,5.13,0,0,0,3.8-3.23l6.11-16.35c1.42-.41,2.83-.84,4.22-1.28l14.17,10.2A5.13,5.13,0,0,0,309,418.3a5,5,0,0,0,.89-2.17l2.81-17.23c1.3-.68,2.59-1.38,3.88-2.08l15.9,7.25a5.11,5.11,0,0,0,7.24-4.84l-.61-17.5q1.69-1.35,3.35-2.76l17.05,4a5.12,5.12,0,0,0,6.16-6.15l-4-17.05q1.39-1.65,2.75-3.36l17.5.62a5.12,5.12,0,0,0,4.84-7.25l-7.25-15.9c.71-1.28,1.41-2.57,2.08-3.87l17.24-2.81a5.12,5.12,0,0,0,3.33-8L391.91,305c.44-1.4.87-2.8,1.28-4.22l16.35-6.11a5.12,5.12,0,0,0,1.7-8.54l-12.79-11.94c.15-1.44.3-2.89.42-4.33l14.89-9.22a5.13,5.13,0,0,0,0-8.71ZM314.14,375.4a10.55,10.55,0,1,1,12.5-8.11,10.55,10.55,0,0,1-12.5,8.11Zm-5.06-34.21a9.59,9.59,0,0,0-11.39,7.37h0l-5.29,24.67a130,130,0,0,1-108.09-.52L179,348.06a9.6,9.6,0,0,0-11.4-7.38l-21.77,4.67a128.36,128.36,0,0,1-11.26-13.27H240.53c1.2,0,2-.21,2-1.31V293.3c0-1.09-.8-1.3-2-1.3h-31V268.24h33.51c3.06,0,16.36.88,20.61,17.87,1.33,5.23,4.25,22.23,6.25,27.67,2,6.11,10.1,18.3,18.74,18.3h52.79a10.93,10.93,0,0,0,1.91-.19,130,130,0,0,1-12,14.09l-22.28-4.79ZM162.57,374.88a10.54,10.54,0,1,1,8.08-12.52,10.52,10.52,0,0,1-8.08,12.52ZM122.39,211.93a10.53,10.53,0,1,1-13.89-5.36,10.54,10.54,0,0,1,13.89,5.36ZM110,241.21l22.68-10.08a9.62,9.62,0,0,0,4.88-12.68l-4.67-10.56H151.3v82.8H114.24a130.69,130.69,0,0,1-4.2-49.48Zm99.52-8V208.76H253.3c2.26,0,16,2.61,16,12.85,0,8.51-10.51,11.55-19.14,11.55H209.56Zm159,22q0,4.85-.36,9.62h-13.3c-1.33,0-1.87.87-1.87,2.18V273c0,14.38-8.1,17.51-15.21,18.3-6.76.76-14.26-2.83-15.18-7-4-22.44-10.64-27.24-21.14-35.52,13-8.27,26.59-20.48,26.59-36.82,0-17.65-12.1-28.76-20.35-34.21-11.56-7.63-24.37-9.16-27.83-9.16H142.36a129.42,129.42,0,0,1,72.51-40.92l16.22,17a9.58,9.58,0,0,0,13.55.32h0l18.14-17.35a129.75,129.75,0,0,1,88.73,63.2l-12.42,28A9.64,9.64,0,0,0,344,231.64l23.91,10.62c.41,4.24.63,8.53.63,12.88ZM231.09,113.27a10.54,10.54,0,1,1-.35,14.91,10.53,10.53,0,0,1,.35-14.91Zm123.23,99.17a10.53,10.53,0,0,1,13.87-5.37h0a10.54,10.54,0,0,1-8.51,19.29h0a10.57,10.57,0,0,1-5.36-13.92Z"/></g></g></g></svg>