<svg xmlns="http://www.w3.org/2000/svg" viewBox="0 0 663 146"><defs><style>.cls-1{fill:#533291;}.cls-2{fill:#3b1c74;}.cls-3{font-size:55px;font-family:RubikMonoOne-Regular, Rubik Mono One;}.cls-3,.cls-4{fill:#c5b3e6;}</style></defs><g id="Layer_2" data-name="Layer 2"><g id="Layer_1-2" data-name="Layer 1"><rect class="cls-1" width="624" height="146" rx="24"/><rect class="cls-2" width="268" height="146" rx="24"/><text class="cls-3" transform="translate(339.2 95.26)">RUST</text><path class="cls-4" d="M176.38,75.78l-3.84-2.38c0-.37-.07-.75-.11-1.12l3.3-3.08a1.32,1.32,0,0,0-.44-2.2l-4.22-1.58-.33-1.09,2.63-3.65a1.33,1.33,0,0,0-.3-1.85,1.26,1.26,0,0,0-.56-.23l-4.45-.72c-.17-.34-.35-.67-.53-1l1.87-4.11a1.3,1.3,0,0,0-.11-1.28,1.32,1.32,0,0,0-1.14-.59l-4.52.16c-.23-.29-.47-.58-.71-.86l1-4.4a1.32,1.32,0,0,0-1.59-1.59l-4.4,1c-.28-.25-.57-.48-.86-.72l.15-4.51a1.31,1.31,0,0,0-1.86-1.25l-4.11,1.87-1-.54-.72-4.45a1.33,1.33,0,0,0-1.52-1.09,1.62,1.62,0,0,0-.56.23l-3.65,2.64c-.36-.12-.73-.23-1.09-.33l-1.58-4.22a1.33,1.33,0,0,0-1-.84,1.3,1.3,0,0,0-1.22.4l-3.08,3.3-1.12-.11-2.38-3.84a1.31,1.31,0,0,0-1.81-.43,1.26,1.26,0,0,0-.43.43l-2.38,3.84-1.12.11-3.08-3.3a1.3,1.3,0,0,0-1.86-.07,1.27,1.27,0,0,0-.34.51l-1.58,4.22c-.36.1-.73.21-1.09.33l-3.65-2.64a1.33,1.33,0,0,0-1.28-.14,1.3,1.3,0,0,0-.8,1l-.73,4.45-1,.54-4.1-1.87a1.33,1.33,0,0,0-1.28.1,1.35,1.35,0,0,0-.59,1.15l.16,4.51c-.29.24-.58.47-.87.72l-4.39-1a1.32,1.32,0,0,0-1.59,1.59l1,4.4c-.24.28-.47.57-.71.86l-4.51-.16a1.35,1.35,0,0,0-1.15.59,1.33,1.33,0,0,0-.1,1.28L95,56.88l-.54,1L90,58.6a1.33,1.33,0,0,0-1.1,1.52,1.47,1.47,0,0,0,.24.56l2.63,3.65c-.12.36-.23.72-.33,1.09L87.25,67a1.32,1.32,0,0,0-.78,1.7,1.43,1.43,0,0,0,.34.5l3.3,3.08c0,.37-.08.75-.11,1.12l-3.84,2.38a1.28,1.28,0,0,0-.62,1.12A1.3,1.3,0,0,0,86.16,78L90,80.4c0,.37.07.75.11,1.12l-3.3,3.08a1.32,1.32,0,0,0-.07,1.86,1.35,1.35,0,0,0,.51.34l4.22,1.58c.1.36.21.73.33,1.09l-2.63,3.65A1.33,1.33,0,0,0,89.46,95a1.3,1.3,0,0,0,.57.23l4.44.72.54,1L93.14,101a1.35,1.35,0,0,0,.1,1.29,1.32,1.32,0,0,0,1.15.58l4.51-.15c.24.29.47.58.71.86l-1,4.4a1.32,1.32,0,0,0,.35,1.24,1.34,1.34,0,0,0,1.24.35l4.39-1,.87.71-.16,4.52a1.33,1.33,0,0,0,1.28,1.37,1.48,1.48,0,0,0,.59-.12l4.1-1.87,1,.53.73,4.45a1.31,1.31,0,0,0,.8,1,1.34,1.34,0,0,0,1.28-.15l3.65-2.63,1.09.33,1.58,4.22a1.31,1.31,0,0,0,1,.83,1.3,1.3,0,0,0,1.22-.4l3.08-3.3c.37,0,.75.08,1.12.12l2.38,3.84a1.32,1.32,0,0,0,2.24,0l2.38-3.84c.37,0,.75-.07,1.12-.12l3.08,3.3a1.3,1.3,0,0,0,1.22.4,1.31,1.31,0,0,0,1-.83l1.58-4.22,1.09-.33,3.65,2.63a1.33,1.33,0,0,0,1.85-.3,1.31,1.31,0,0,0,.23-.56l.72-4.45c.34-.17.67-.35,1-.53l4.1,1.87a1.32,1.32,0,0,0,1.75-.65,1.27,1.27,0,0,0,.12-.6l-.15-4.52.86-.71,4.4,1A1.32,1.32,0,0,0,164,108l-1-4.4c.24-.28.48-.57.71-.86l4.52.15a1.29,1.29,0,0,0,1.14-.58,1.32,1.32,0,0,0,.11-1.29l-1.87-4.1c.18-.33.36-.66.53-1l4.45-.72a1.32,1.32,0,0,0,.86-2.08l-2.63-3.65.33-1.09,4.22-1.58a1.31,1.31,0,0,0,.83-1,1.3,1.3,0,0,0-.4-1.22l-3.29-3.08c0-.37.07-.75.1-1.12L176.37,78A1.31,1.31,0,0,0,177,76.9a1.33,1.33,0,0,0-.62-1.12Zm-25.71,31.85a2.72,2.72,0,1,1,3.23-2.09,2.73,2.73,0,0,1-3.23,2.09Zm-1.3-8.82a2.47,2.47,0,0,0-2.94,1.9h0l-1.36,6.36a33.56,33.56,0,0,1-27.89-.13l-1.36-6.36a2.48,2.48,0,0,0-2.94-1.91l-5.62,1.21a34.94,34.94,0,0,1-2.9-3.42h27.33c.3,0,.51-.06.51-.34V86.45c0-.28-.21-.34-.51-.34h-8V80h8.65c.79,0,4.22.22,5.31,4.61.35,1.34,1.1,5.73,1.62,7.13.51,1.58,2.6,4.73,4.83,4.73h13.62a2.91,2.91,0,0,0,.49,0,34.44,34.44,0,0,1-3.09,3.63l-5.75-1.23Zm-37.8,8.69a2.72,2.72,0,1,1,2.09-3.23,2.72,2.72,0,0,1-2.09,3.23Zm-10.36-42a2.74,2.74,0,0,1-1.39,3.59,2.72,2.72,0,1,1,1.38-3.59ZM98,73l5.85-2.6a2.48,2.48,0,0,0,1.26-3.27l-1.21-2.72h4.74V85.78H99.1a33.51,33.51,0,0,1-1.27-9.18A32.81,32.81,0,0,1,98,73Zm25.67-2.07v-6.3H135c.58,0,4.12.67,4.12,3.32,0,2.19-2.71,3-4.94,3Zm41,5.66q0,1.26-.09,2.49h-3.43c-.35,0-.49.22-.49.56v1.57c0,3.71-2.09,4.52-3.92,4.73s-3.68-.74-3.92-1.8c-1-5.79-2.74-7-5.45-9.17,3.36-2.13,6.86-5.28,6.86-9.5,0-4.55-3.12-7.42-5.25-8.82a14.84,14.84,0,0,0-7.18-2.36H106.36a33.36,33.36,0,0,1,18.71-10.56l4.18,4.39a2.48,2.48,0,0,0,3.49.08h0l4.68-4.48A33.49,33.49,0,0,1,160.32,60l-3.2,7.24a2.47,2.47,0,0,0,1.26,3.27l6.17,2.74c.1,1.1.16,2.2.16,3.32ZM129.25,40a2.72,2.72,0,1,1-.09,3.84,2.72,2.72,0,0,1,.09-3.84ZM161,65.59a2.71,2.71,0,0,1,3.58-1.38h0a2.72,2.72,0,1,1-2.19,5h0A2.72,2.72,0,0,1,161,65.59Z"/></g></g></svg>