<svg xmlns="http://www.w3.org/2000/svg" viewBox="0 0 1050 146"><defs><style>.cls-1{fill:#533291;}.cls-2{fill:#3b1c74;}.cls-3{font-size:55px;font-family:RubikMonoOne-Regular, Rubik Mono One;}.cls-3,.cls-4{fill:#E8E1F5;}</style></defs><g id="Layer_2" data-name="Layer 2"><g id="Layer_1-2" data-name="Layer 1"><rect class="cls-1" width="1050" height="146" rx="24"/><rect class="cls-2" width="268" height="146" rx="24"/><text class="cls-3" transform="translate(339.2 95.26)">Full-STACK WEB</text><path class="cls-4" d="M164.15,59.64h0c-1.07-.37-2.15-.71-3.23-1,.18-.73.34-1.47.5-2.21,2.44-11.87.84-21.44-4.62-24.59-5.24-3-13.8.13-22.45,7.66-.86.74-1.69,1.51-2.5,2.29-.55-.52-1.1-1-1.67-1.53C121.12,32.18,112,28.79,106.57,32c-5.23,3-6.78,12-4.58,23.28.22,1.12.47,2.22.74,3.33-1.28.36-2.53.75-3.71,1.16C88.39,63.43,81.6,69.24,81.6,75.26c0,6.23,7.29,12.47,18.36,16.25.9.31,1.8.59,2.71.85-.29,1.19-.56,2.38-.79,3.58-2.1,11.06-.46,19.85,4.76,22.86,5.39,3.1,14.44-.09,23.25-7.79.7-.61,1.39-1.26,2.09-1.93.89.85,1.79,1.67,2.72,2.47,8.53,7.35,17,10.31,22.17,7.29,5.39-3.11,7.14-12.55,4.87-24-.18-.87-.38-1.77-.61-2.68.64-.19,1.26-.38,1.87-.58,11.51-3.82,19-10,19-16.29C182,69.22,175,63.37,164.15,59.64Zm-27-16.93c7.41-6.45,14.34-9,17.5-7.17,3.36,1.94,4.67,9.75,2.56,20-.14.67-.29,1.33-.46,2a103.58,103.58,0,0,0-13.42-2.12,101.51,101.51,0,0,0-8.49-10.59C135.6,44.11,136.37,43.4,137.16,42.71Zm-25.92,37.7c.91,1.75,1.86,3.49,2.85,5.19s2.06,3.47,3.15,5.16A90,90,0,0,1,108,89.27C108.88,86.41,110,83.44,111.24,80.41Zm0-10.09c-1.25-3-2.32-5.87-3.19-8.69,2.86-.64,5.92-1.16,9.1-1.56q-1.59,2.49-3.08,5.06C113.09,66.84,112.14,68.57,111.24,70.32Zm2.28,5.05q2-4.12,4.27-8.1h0q2.28-4,4.87-7.75c3-.22,6-.34,9.14-.34s6.17.12,9.16.35q2.55,3.77,4.84,7.72t4.32,8.06c-1.34,2.75-2.78,5.47-4.31,8.12h0c-1.52,2.64-3.13,5.24-4.82,7.77-3,.22-6.05.33-9.19.33s-6.16-.1-9.09-.29q-2.59-3.8-4.91-7.78T113.52,75.37Zm36,10.21q1.51-2.64,2.91-5.32h0a90.47,90.47,0,0,1,3.37,8.83,89.92,89.92,0,0,1-9.37,1.59Q148,88.16,149.53,85.58Zm2.87-15.25q-1.4-2.65-2.89-5.23h0c-1-1.69-2-3.37-3-5a92.42,92.42,0,0,1,9.15,1.6A91.13,91.13,0,0,1,152.4,70.33ZM131.85,47.9A90.28,90.28,0,0,1,137.76,55q-5.94-.28-11.87,0C127.84,52.46,129.84,50.07,131.85,47.9ZM108.72,35.66c3.36-1.94,10.79.83,18.61,7.78.5.45,1,.91,1.51,1.39a102.38,102.38,0,0,0-8.55,10.59,105.72,105.72,0,0,0-13.4,2.08q-.39-1.55-.69-3.09h0C104.31,44.76,105.57,37.49,108.72,35.66Zm-4.9,52.57c-.83-.24-1.66-.5-2.47-.78a36.43,36.43,0,0,1-11.72-6.22c-2.49-2.13-3.74-4.25-3.74-6,0-3.65,5.45-8.32,14.54-11.49q1.71-.59,3.45-1.08a103.66,103.66,0,0,0,4.9,12.68A103.28,103.28,0,0,0,103.82,88.23Zm23.25,19.55a36.35,36.35,0,0,1-11.24,7h0c-3.09,1.1-5.56,1.13-7,.27-3.17-1.83-4.49-8.88-2.69-18.34.21-1.11.46-2.23.73-3.33a101.73,101.73,0,0,0,13.53,2A105.25,105.25,0,0,0,129,106C128.36,106.62,127.72,107.21,127.07,107.78Zm4.9-4.85a93.84,93.84,0,0,1-6-7.23c1.92.08,3.88.12,5.87.12s4.07,0,6.06-.14A92.22,92.22,0,0,1,132,102.93Zm26,6c-.6,3.22-1.8,5.37-3.29,6.23-3.16,1.83-9.93-.55-17.22-6.83-.84-.72-1.68-1.49-2.53-2.3a99.85,99.85,0,0,0,8.42-10.69A100.4,100.4,0,0,0,157,93.22q.3,1.25.54,2.43h0A36.31,36.31,0,0,1,158,108.9Zm3.64-21.42h0L160,88a100.57,100.57,0,0,0-5.09-12.72,101.31,101.31,0,0,0,4.89-12.53c1,.3,2,.61,3,.94,9.29,3.2,15,7.93,15,11.57C177.71,79.14,171.59,84.18,161.65,87.48Z"/><path class="cls-4" d="M131.81,66.4a9,9,0,1,1-9,9,9,9,0,0,1,9-9"/></g></g></svg>