<svg xmlns="http://www.w3.org/2000/svg" xmlns:xlink="http://www.w3.org/1999/xlink" viewBox="0 0 446.18 417.46"><defs><style>.cls-1{fill:none;}.cls-2{clip-path:url(#clip-path);}.cls-3{fill:#6f42c1;}.cls-4{fill:#471e9e;}.cls-5{fill:#fff;}</style><clipPath id="clip-path"><rect class="cls-1" width="380" height="380" rx="12"/></clipPath></defs><g id="Layer_2" data-name="Layer 2"><g id="Layer_1-2" data-name="Layer 1"><g class="cls-2"><rect class="cls-3" width="380" height="380" rx="12"/><path class="cls-4" d="M383,199.68h0c-3.79-1.29-7.6-2.5-11.45-3.6.64-2.59,1.23-5.2,1.77-7.81,8.66-42.05,3-75.92-16.34-87.08-18.55-10.69-48.88.46-79.51,27.12q-4.53,3.94-8.85,8.12-2.89-2.77-5.89-5.44c-32.1-28.51-64.28-40.52-83.6-29.33-18.53,10.72-24,42.57-16.22,82.42q1.17,5.92,2.63,11.78c-4.55,1.29-9,2.67-13.16,4.13-37.63,13.13-61.67,33.69-61.67,55,0,22,25.8,44.13,65,57.53q4.77,1.62,9.62,3-1.58,6.3-2.8,12.69c-7.43,39.16-1.62,70.25,16.85,80.91,19.09,11,51.12-.31,82.31-27.57q3.7-3.24,7.42-6.84,4.68,4.51,9.61,8.77c30.21,26,60.05,36.49,78.52,25.81,19.06-11,25.26-44.44,17.21-85.08-.61-3.11-1.33-6.28-2.13-9.51,2.25-.66,4.46-1.35,6.61-2.06,40.76-13.5,67.27-35.33,67.27-57.66C446.18,233.6,421.37,212.9,383,199.68Zm-95.56-59.92c26.25-22.84,50.78-31.86,61.95-25.41,11.91,6.87,16.54,34.55,9.06,70.86-.49,2.36-1,4.72-1.6,7.06a364,364,0,0,0-47.53-7.5,357.33,357.33,0,0,0-30.05-37.51Q283.24,143.41,287.42,139.76ZM195.65,273.23q4.83,9.31,10.08,18.4,5.37,9.25,11.16,18.26a322.78,322.78,0,0,1-32.76-5.27C187.27,294.48,191.14,284,195.65,273.23Zm0-35.71c-4.43-10.49-8.21-20.8-11.3-30.76,10.14-2.27,21-4.13,32.23-5.54q-5.65,8.84-10.9,17.91T195.64,237.52Zm8.07,17.86q7-14.61,15.12-28.66h0q8.1-14,17.24-27.44c10.57-.8,21.41-1.22,32.37-1.22s21.86.42,32.43,1.23q9,13.36,17.13,27.35t15.32,28.52q-7.12,14.66-15.27,28.78h0Q310,298,301,311.45c-10.55.76-21.45,1.15-32.55,1.15s-21.83-.35-32.19-1Q227,298.14,218.88,284T203.71,255.38ZM331.2,291.52q5.37-9.3,10.31-18.83A322.87,322.87,0,0,1,353.45,304a321.43,321.43,0,0,1-33.16,5.65Q325.92,300.69,331.2,291.52Zm10.16-54q-4.92-9.36-10.22-18.5t-10.81-17.78c11.34,1.43,22.21,3.34,32.41,5.67A322.47,322.47,0,0,1,341.36,237.53Zm-72.75-79.41a327.06,327.06,0,0,1,20.92,25.26q-21-1-42,0C254.42,174.26,261.49,165.8,268.61,158.12ZM186.72,114.8c11.89-6.88,38.19,2.93,65.91,27.54,1.77,1.58,3.55,3.23,5.33,4.93a363.47,363.47,0,0,0-30.28,37.47,369.93,369.93,0,0,0-47.44,7.38q-1.37-5.44-2.44-11h0C171.11,147,175.55,121.26,186.72,114.8ZM169.38,300.92c-2.95-.85-5.87-1.76-8.77-2.75-17.34-5.92-31.65-13.62-41.47-22-8.81-7.55-13.27-15-13.27-21.13,0-12.94,19.3-29.45,51.49-40.67q6.06-2.11,12.24-3.85a365.18,365.18,0,0,0,17.32,44.89A370.44,370.44,0,0,0,169.38,300.92Zm82.3,69.22c-13.79,12.06-27.61,20.61-39.8,24.91h0c-10.94,3.87-19.66,4-24.93.94-11.21-6.46-15.87-31.43-9.52-64.92q1.14-5.94,2.6-11.8a357.67,357.67,0,0,0,47.91,6.93,368.91,368.91,0,0,0,30.51,37.7Q255.15,367.11,251.68,370.14ZM269,353c-7.2-7.77-14.38-16.36-21.39-25.6q10.2.4,20.8.4,10.86,0,21.45-.48A323.76,323.76,0,0,1,269,353Zm92.21,21.13c-2.11,11.41-6.37,19-11.63,22.06-11.21,6.49-35.17-1.94-61-24.17q-4.46-3.83-8.94-8.15A358.57,358.57,0,0,0,309.46,326a355.7,355.7,0,0,0,48.15-7.42q1.09,4.38,1.93,8.6h0C363.09,345.16,363.6,361.4,361.24,374.11Zm12.9-75.85h0q-2.92,1-6,1.86a356.21,356.21,0,0,0-18-45,357.82,357.82,0,0,0,17.31-44.38c3.63,1,7.16,2.16,10.56,3.33,32.9,11.33,53,28.07,53,41C431,268.75,409.32,286.6,374.14,298.26ZM265,223.45a31.75,31.75,0,1,1-31.74,31.74A31.74,31.74,0,0,1,265,223.45"/><path class="cls-5" d="M364,211h0q-5.49-1.87-11.06-3.48.93-3.75,1.71-7.54c8.37-40.61,2.9-73.32-15.78-84.09-17.91-10.33-47.2.44-76.78,26.18q-4.38,3.81-8.55,7.85c-1.87-1.79-3.76-3.54-5.69-5.26-31-27.53-62.08-39.13-80.74-28.32-17.89,10.35-23.19,41.11-15.66,79.6q1.13,5.72,2.54,11.37c-4.4,1.25-8.65,2.58-12.71,4C104.9,224,81.69,243.84,81.69,264.44c0,21.28,24.92,42.62,62.78,55.56q4.6,1.56,9.28,2.9-1.51,6.09-2.7,12.26C143.87,373,149.48,403,167.33,413.3c18.43,10.62,49.36-.3,79.49-26.63,2.38-2.08,4.77-4.29,7.16-6.6,3,2.9,6.11,5.73,9.28,8.46,29.18,25.11,58,35.25,75.83,24.93,18.41-10.66,24.4-42.92,16.63-82.17q-.9-4.5-2.06-9.17c2.17-.65,4.3-1.31,6.38-2,39.36-13,65-34.12,65-55.68C425,243.76,401.05,223.77,364,211Zm-92.29-57.86c25.35-22.06,49-30.77,59.83-24.55,11.5,6.63,16,33.37,8.75,68.43-.48,2.29-1,4.56-1.55,6.83a350.82,350.82,0,0,0-45.9-7.25,343.4,343.4,0,0,0-29-36.22Q267.65,156.66,271.68,153.14ZM183.06,282q4.65,9,9.73,17.76,5.18,8.94,10.78,17.63a311.46,311.46,0,0,1-31.64-5.08C175,302.56,178.7,292.38,183.06,282Zm0-34.5c-4.27-10.13-7.92-20.09-10.91-29.7,9.8-2.2,20.24-4,31.13-5.35q-5.47,8.52-10.53,17.3T183,247.54Zm7.8,17.25q6.78-14.1,14.6-27.68h0q7.81-13.58,16.65-26.51c10.21-.77,20.68-1.17,31.26-1.17s21.11.41,31.32,1.18q8.73,12.91,16.54,26.42T316,264.58q-6.87,14.16-14.75,27.79h0q-7.8,13.56-16.47,26.58c-10.19.72-20.71,1.1-31.44,1.1s-21.08-.33-31.09-1q-8.88-13-16.77-26.62T190.84,264.79ZM314,299.7q5.19-9,10-18.19a310.81,310.81,0,0,1,11.53,30.2,312.15,312.15,0,0,1-32,5.46Q308.87,308.55,314,299.7Zm9.82-52.15q-4.75-9-9.88-17.86t-10.44-17.17c11,1.38,21.45,3.22,31.31,5.47A313.76,313.76,0,0,1,323.78,247.55Zm-70.27-76.68a311.85,311.85,0,0,1,20.21,24.39q-20.28-1-40.58,0C239.81,186.45,246.64,178.28,253.51,170.87ZM174.43,129c11.48-6.65,36.88,2.83,63.65,26.6,1.71,1.52,3.43,3.11,5.15,4.75A353.53,353.53,0,0,0,214,196.58a357.28,357.28,0,0,0-45.81,7.12q-1.3-5.26-2.36-10.58h0C159.36,160.14,163.64,135.27,174.43,129ZM157.69,308.77c-2.85-.81-5.68-1.7-8.48-2.65-16.74-5.72-30.56-13.16-40-21.27-8.52-7.3-12.82-14.54-12.82-20.41,0-12.5,18.64-28.45,49.73-39.29q5.85-2,11.81-3.71a353,353,0,0,0,16.74,43.36A355.39,355.39,0,0,0,157.69,308.77Zm79.48,66.85c-13.32,11.65-26.67,19.91-38.44,24.06h0c-10.57,3.74-19,3.84-24.07.91-10.84-6.25-15.34-30.36-9.2-62.7q1.09-5.73,2.51-11.4a345,345,0,0,0,46.27,6.7,354.86,354.86,0,0,0,29.47,36.41Q240.52,372.69,237.17,375.62Zm16.75-16.57c-6.95-7.5-13.89-15.8-20.66-24.72,6.57.25,13.28.39,20.09.39q10.5,0,20.72-.46A311.83,311.83,0,0,1,253.92,359.05ZM343,379.45c-2.05,11-6.16,18.37-11.24,21.32-10.82,6.26-34-1.88-58.91-23.35q-4.29-3.71-8.63-7.88A344.24,344.24,0,0,0,293,333a343,343,0,0,0,46.5-7.16q1,4.23,1.86,8.3h0C344.76,351.5,345.26,367.19,343,379.45Zm12.45-73.25h0q-2.82.93-5.77,1.8a344.28,344.28,0,0,0-17.38-43.49A344.34,344.34,0,0,0,349,221.65c3.51,1,6.92,2.09,10.2,3.22C391,235.81,410.34,252,410.34,264.44,410.34,277.71,389.41,294.94,355.43,306.2ZM250,234a30.66,30.66,0,1,1-30.66,30.66A30.66,30.66,0,0,1,250,234"/></g></g></g></svg>